<?xml version="1.0" encoding="UTF-8" standalone="no"?>
<!-- Created with Inkscape (http://www.inkscape.org/) -->

<svg
   xmlns:dc="http://purl.org/dc/elements/1.1/"
   xmlns:cc="http://creativecommons.org/ns#"
   xmlns:rdf="http://www.w3.org/1999/02/22-rdf-syntax-ns#"
   xmlns:svg="http://www.w3.org/2000/svg"
   xmlns="http://www.w3.org/2000/svg"
   xmlns:sodipodi="http://sodipodi.sourceforge.net/DTD/sodipodi-0.dtd"
   xmlns:inkscape="http://www.inkscape.org/namespaces/inkscape"
   width="64px"
   height="64px"
   id="svg2985"
   version="1.1"
   inkscape:version="0.48.2 r9819"
   sodipodi:docname="logo1.svg">
  <defs
     id="defs2987">
    <inkscape:perspective
       sodipodi:type="inkscape:persp3d"
       inkscape:vp_x="-16.514484 : 69.48609 : 1"
       inkscape:vp_y="0 : 1698.681 : 0"
       inkscape:vp_z="125.61912 : 69.48609 : 1"
       inkscape:persp3d-origin="54.552324 : 51.366826 : 1"
       id="perspective2993" />
  </defs>
  <sodipodi:namedview
     id="base"
     pagecolor="#ffffff"
     bordercolor="#666666"
     borderopacity="1.0"
     inkscape:pageopacity="0.0"
     inkscape:pageshadow="2"
     inkscape:zoom="5.5"
     inkscape:cx="-3.0741334"
     inkscape:cy="31.470781"
     inkscape:current-layer="layer2"
     showgrid="false"
     inkscape:document-units="px"
     inkscape:grid-bbox="true"
     inkscape:snap-global="false"
     inkscape:window-width="1510"
     inkscape:window-height="875"
     inkscape:window-x="100"
     inkscape:window-y="100"
     inkscape:window-maximized="0">
    <inkscape:grid
       type="xygrid"
       id="grid4996" />
  </sodipodi:namedview>
  <metadata
     id="metadata2990">
    <rdf:RDF>
      <cc:Work
         rdf:about="">
        <dc:format>image/svg+xml</dc:format>
        <dc:type
           rdf:resource="http://purl.org/dc/dcmitype/StillImage" />
        <dc:title></dc:title>
      </cc:Work>
    </rdf:RDF>
  </metadata>
  <g
     inkscape:groupmode="layer"
     id="layer2"
     inkscape:label="Layer"
     style="display:inline">
    <path
       sodipodi:type="arc"
       style="fill:#ff5555;fill-opacity:1;stroke:none"
       id="path3048"
       sodipodi:cx="31.272728"
       sodipodi:cy="32.18182"
       sodipodi:rx="23.09091"
       sodipodi:ry="23.09091"
       d="m 54.363638,32.18182 a 23.09091,23.09091 0 1 1 -46.18182,0 23.09091,23.09091 0 1 1 46.18182,0 z"
       transform="matrix(1.0472441,0,0,1.0472441,-0.5683608,-1.8840373)" />
    <path
       style="opacity:0.80088495;fill:#ff5555;fill-opacity:1;stroke:none"
       d="M 28.198594,55.559821 C 17.268231,53.626384 9.0766883,44.684497 8.2237061,33.755232 7.2943209,21.847014 15.123343,11.119642 26.731096,8.3962959 34.218274,6.6396963 42.121443,8.6091254 47.98027,13.691481 c 4.302511,3.732297 7.276477,9.214887 8.040035,14.822029 0.345345,2.536011 0.144962,6.578374 -0.442378,8.924182 -1.102068,4.401607 -3.11018,7.998554 -6.248609,11.192558 -3.733037,3.799144 -7.943935,5.990791 -13.3323,6.939062 -1.86716,0.328594 -5.914968,0.323667 -7.798424,-0.0095 l 0,0 z m 8.848293,-14.512753 c 4.865438,-2.574627 6.342512,-3.43628 6.467332,-3.772727 0.189304,-0.51026 0.100886,-11.03316 -0.0961,-11.437204 -0.148352,-0.304291 -3.345018,-2.137207 -7.465076,-4.280355 l -2.700098,-1.40452 -1.027175,0.225017 c -1.815254,0.397656 -10.450876,2.9209 -10.697731,3.125771 -0.187062,0.155247 -0.238536,1.366106 -0.238536,5.611229 l 0,5.413262 3.227273,3.617963 c 1.775,1.98988 3.755312,4.207531 4.400696,4.928113 0.645382,0.72058 1.319767,1.310147 1.498635,1.310147 0.178865,0 3.162716,-1.501512 6.63078,-3.336696 z"
       id="path5044"
       inkscape:connector-curvature="0" />
    <rect
       style="opacity:1;fill:#ff5555;fill-opacity:1;stroke:none"
       id="rect5046"
       width="75.818184"
       height="79.272728"
       x="-5.6363635"
       y="-4" />
  </g>
  <g
     id="layer1"
     inkscape:label="Layer 1"
     inkscape:groupmode="layer"
     style="display:inline">
    <g
       id="g4981"
       transform="translate(1.4545455,-1.0909091)">
      <g
         transform="translate(0,0.18181818)"
         id="g4892">
        <path
           style="opacity:0.80088495;fill:#ffffff;fill-opacity:1;stroke:none"
           d="m 29.018182,38.519914 0,-6.7945 1.227273,-0.466115 c 0.675,-0.256362 3.55909,-1.371768 6.40909,-2.478678 2.85,-1.106911 5.244316,-2.013559 5.320701,-2.014775 0.07639,-0.0012 0.117294,2.627017 0.09091,5.840517 l -0.04797,5.842727 -4.090909,2.16315 c -2.25,1.189733 -5.175,2.734431 -6.5,3.432662 l -2.409091,1.269513 0,-6.794501 z"
           id="path4886"
           inkscape:connector-curvature="0" />
        <path
           style="opacity:0.80088495;fill:#f2f2f2;fill-opacity:1;stroke:none"
           d="M 24.344056,40.350166 19.942657,35.4 l -0.0077,-5.423821 -0.0077,-5.423822 0.985393,0.787458 c 0.541966,0.433102 2.541748,2.05564 4.443959,3.60564 l 3.458567,2.818181 0.01058,6.772728 c 0.0058,3.725 -0.0099,6.770756 -0.03487,6.768347 -0.025,-0.0024 -2.026084,-2.231955 -4.446853,-4.954545 z"
           id="path4888"
           inkscape:connector-curvature="0" />
        <path
           style="opacity:0.80088495;fill:#cccccc;fill-opacity:1;stroke:none"
           d="m 24.447501,28.015325 c -2.336126,-1.911571 -4.268006,-3.527631 -4.293068,-3.591245 -0.04729,-0.120032 11.129234,-3.311036 11.565117,-3.301952 0.278575,0.0058 10.027799,5.315453 10.022474,5.458465 -0.0042,0.113723 -12.552479,4.913967 -12.839977,4.911845 -0.113875,-8.37e-4 -2.11842,-1.565542 -4.454546,-3.477113 l 0,0 z"
           id="path4890"
           inkscape:connector-curvature="0" />
      </g>
      <path
         transform="translate(-0.36363636,-0.72727273)"
         inkscape:transform-center-y="1.3636364"
         d="m 33.636363,34.81818 c 0,0.753116 -0.569819,1.363636 -1.272727,1.363636 -0.702908,0 -1.272727,-0.61052 -1.272727,-1.363636 0,-0.753115 0.569819,-1.363636 1.272727,-1.363636 0.702908,0 1.272727,0.610521 1.272727,1.363636 z"
         sodipodi:ry="1.3636364"
         sodipodi:rx="1.2727273"
         sodipodi:cy="34.81818"
         sodipodi:cx="32.363636"
         id="path4897"
         style="opacity:0.80088495;fill:#000000;fill-opacity:1;stroke:none"
         sodipodi:type="arc" />
      <path
         d="m 33.636363,34.81818 c 0,0.753116 -0.569819,1.363636 -1.272727,1.363636 -0.702908,0 -1.272727,-0.61052 -1.272727,-1.363636 0,-0.753115 0.569819,-1.363636 1.272727,-1.363636 0.702908,0 1.272727,0.610521 1.272727,1.363636 z"
         sodipodi:ry="1.3636364"
         sodipodi:rx="1.2727273"
         sodipodi:cy="34.81818"
         sodipodi:cx="32.363636"
         id="path4897-6"
         style="opacity:0.80088495;fill:#000000;fill-opacity:1;stroke:none;display:inline"
         sodipodi:type="arc"
         transform="translate(3.4545457,1.1818203)" />
      <path
         d="m 33.636363,34.81818 c 0,0.753116 -0.569819,1.363636 -1.272727,1.363636 -0.702908,0 -1.272727,-0.61052 -1.272727,-1.363636 0,-0.753115 0.569819,-1.363636 1.272727,-1.363636 0.702908,0 1.272727,0.610521 1.272727,1.363636 z"
         sodipodi:ry="1.3636364"
         sodipodi:rx="1.2727273"
         sodipodi:cy="34.81818"
         sodipodi:cx="32.363636"
         id="path4897-8"
         style="opacity:0.80088495;fill:#000000;fill-opacity:1;stroke:none;display:inline"
         sodipodi:type="arc"
         transform="translate(7.4545458,2.6363654)" />
      <path
         transform="matrix(1,0,0.11531882,1,-3.8404146,0)"
         d="m 24.954545,34.090908 c 0,0.878635 -0.468066,1.590909 -1.045455,1.590909 -0.577389,0 -1.045454,-0.712274 -1.045454,-1.590909 0,-0.878635 0.468065,-1.590909 1.045454,-1.590909 0.577389,0 1.045455,0.712274 1.045455,1.590909 z"
         sodipodi:ry="1.5909091"
         sodipodi:rx="1.0454545"
         sodipodi:cy="34.090908"
         sodipodi:cx="23.90909"
         id="path4931"
         style="opacity:0.80088495;fill:#000000;fill-opacity:1;stroke:none"
         sodipodi:type="arc" />
      <path
         transform="translate(0.45454563,-0.61363675)"
         d="m 26.090909,25.386364 c 0,0.364006 -0.630872,0.659091 -1.409091,0.659091 -0.778219,0 -1.409091,-0.295085 -1.409091,-0.659091 0,-0.364006 0.630872,-0.659091 1.409091,-0.659091 0.778219,0 1.409091,0.295085 1.409091,0.659091 z"
         sodipodi:ry="0.65909094"
         sodipodi:rx="1.4090909"
         sodipodi:cy="25.386364"
         sodipodi:cx="24.681818"
         id="path4933-7"
         style="opacity:0.80088495;fill:#000000;fill-opacity:1;stroke:none"
         sodipodi:type="arc" />
      <path
         transform="translate(5.8636366,-2.1590913)"
         d="m 26.090909,25.386364 c 0,0.364006 -0.630872,0.659091 -1.409091,0.659091 -0.778219,0 -1.409091,-0.295085 -1.409091,-0.659091 0,-0.364006 0.630872,-0.659091 1.409091,-0.659091 0.778219,0 1.409091,0.295085 1.409091,0.659091 z"
         sodipodi:ry="0.65909094"
         sodipodi:rx="1.4090909"
         sodipodi:cy="25.386364"
         sodipodi:cx="24.681818"
         id="path4933-71"
         style="opacity:0.80088495;fill:#000000;fill-opacity:1;stroke:none"
         sodipodi:type="arc" />
      <path
         transform="translate(5.7727275,0.52272688)"
         d="m 26.090909,25.386364 c 0,0.364006 -0.630872,0.659091 -1.409091,0.659091 -0.778219,0 -1.409091,-0.295085 -1.409091,-0.659091 0,-0.364006 0.630872,-0.659091 1.409091,-0.659091 0.778219,0 1.409091,0.295085 1.409091,0.659091 z"
         sodipodi:ry="0.65909094"
         sodipodi:rx="1.4090909"
         sodipodi:cy="25.386364"
         sodipodi:cx="24.681818"
         id="path4933-2"
         style="opacity:0.80088495;fill:#000000;fill-opacity:1;stroke:none"
         sodipodi:type="arc" />
      <path
         transform="translate(4.9090911,3.2954541)"
         d="m 26.090909,25.386364 c 0,0.364006 -0.630872,0.659091 -1.409091,0.659091 -0.778219,0 -1.409091,-0.295085 -1.409091,-0.659091 0,-0.364006 0.630872,-0.659091 1.409091,-0.659091 0.778219,0 1.409091,0.295085 1.409091,0.659091 z"
         sodipodi:ry="0.65909094"
         sodipodi:rx="1.4090909"
         sodipodi:cy="25.386364"
         sodipodi:cx="24.681818"
         id="path4933-6"
         style="opacity:0.80088495;fill:#000000;fill-opacity:1;stroke:none"
         sodipodi:type="arc" />
      <path
         transform="translate(10.772727,1.204545)"
         d="m 26.090909,25.386364 c 0,0.364006 -0.630872,0.659091 -1.409091,0.659091 -0.778219,0 -1.409091,-0.295085 -1.409091,-0.659091 0,-0.364006 0.630872,-0.659091 1.409091,-0.659091 0.778219,0 1.409091,0.295085 1.409091,0.659091 z"
         sodipodi:ry="0.65909094"
         sodipodi:rx="1.4090909"
         sodipodi:cy="25.386364"
         sodipodi:cx="24.681818"
         id="path4933-0"
         style="opacity:0.80088495;fill:#000000;fill-opacity:1;stroke:none"
         sodipodi:type="arc" />
    </g>
  </g>
</svg>
